Coordinates
version=1
nRows=16
nColumns=36
inDegrees=yes

Units are S.I. units (second, meters, Newtons, ...)
If the header above contains a line with 'inDegrees', this indicates whether rotational values are in degrees (yes) or radians (no).

endheader
time	pelvis_tilt	pelvis_list	pelvis_rotation	pelvis_tx	pelvis_ty	pelvis_tz	hip_flexion_r	hip_adduction_r	hip_rotation_r	knee_angle_r	knee_angle_r_beta	ankle_angle_r	subtalar_angle_r	mtp_angle_r	hip_flexion_l	hip_adduction_l	hip_rotation_l	knee_angle_l	knee_angle_l_beta	ankle_angle_l	subtalar_angle_l	mtp_angle_l	lumbar_extension	lumbar_bending	lumbar_rotation	arm_flex_r	arm_add_r	arm_rot_r	elbow_flex_r	pro_sup_r	arm_flex_l	arm_add_l	arm_rot_l	elbow_flex_l	pro_sup_l
      2.97916670	     -1.27125253	     -1.27284473	     -0.80212292	     -0.14064213	      1.00255098	     -0.05226190	     24.95723986	     -5.21756746	     -8.56851182	      9.12611440	      0.15928074	    -20.99782479	      3.07668638	     -7.49999987	     25.80018348	     -7.48055571	     -7.20676960	      9.65739228	      0.16855329	    -21.89703067	      6.19680237	     -7.49999987	    -32.20942715	      4.56588749	      0.07966113	    -16.24622296	    -31.50727643	      2.97063274	     41.69053792	     69.11910656	    -23.09546794	    -29.50018900	     17.14082466	     45.33830097	     57.64246314
      2.98333330	     -0.87701849	     -1.26656067	     -0.80275662	     -0.13187930	      0.99795505	     -0.05228772	     24.99783362	     -5.25736302	     -9.18171864	      9.61058355	      0.16773633	    -21.05467521	      3.87779490	     -7.49999987	     25.65182959	     -7.51456961	     -7.08593081	     10.06731751	      0.17570784	    -22.39288210	      5.89295668	     -7.49999987	    -32.65743445	      4.72910895	      0.13604314	    -16.01952185	    -30.68035330	      3.21844853	     38.73636037	     66.87925199	    -22.40700960	    -28.85447260	     21.00286603	     42.41540983	     51.88844049
      2.98750000	     -0.50021475	     -1.20511787	     -0.70299340	     -0.12956669	      0.98910419	     -0.05118491	     25.11334098	     -5.42313380	     -9.62963044	     10.00756427	      0.17466495	    -21.30149914	      4.38960037	     -7.49999987	     25.80856523	     -7.56778219	     -7.08835756	     10.68846633	      0.18654893	    -22.78086639	      5.84679410	     -7.49999987	    -33.37295856	      4.70324676	     -0.21798282	    -16.41236564	    -29.59843775	      1.77939793	     37.94015291	     66.06162654	    -23.00940427	    -27.81874109	     20.45533869	     41.14185836	     52.21823550
      2.99166670	     -0.03048879	     -1.13151113	     -0.59201662	     -0.12299175	      0.97402009	     -0.05353002	     25.39014030	     -5.76276536	     -9.80683559	     10.57082091	      0.18449563	    -21.37360209	      4.91346774	     -7.49999987	     26.02129554	     -7.51813481	     -7.04208958	     11.58122873	      0.20213057	    -22.78832679	      5.53531033	     -7.49999987	    -33.93692341	      4.66362674	     -0.37274677	    -17.47254633	    -28.60912946	     -0.42406491	     37.53249726	     65.42277277	    -23.30707731	    -26.06075345	     19.27118627	     38.88337982	     52.23626576
      2.99583330	      0.78352321	     -1.15130436	     -0.54310712	     -0.11951347	      0.97030992	     -0.05554968	     25.06240738	     -6.01410358	     -9.92306602	     11.05549699	      0.19295482	    -21.98670216	      5.12328795	     -7.49999987	     25.64326079	     -7.50378703	     -6.82512098	     12.02808021	      0.20992960	    -23.19382424	      5.42789851	     -7.49999987	    -34.89794737	      4.69619243	     -0.17433589	    -18.00909834	    -27.54021905	     -2.28470324	     36.74629851	     65.03427827	    -22.65590676	    -23.49058690	     18.14627036	     36.12428157	     52.10178945
      3.00000000	      1.14873678	     -1.11196868	     -0.53434635	     -0.11087513	      0.95730006	     -0.05404789	     25.23237990	     -6.17901648	     -9.91245527	     11.73706822	      0.20485049	    -22.60241618	      5.10563668	     -7.49999987	     25.76898309	     -7.53035371	     -6.59796096	     12.72925172	      0.22216735	    -23.08901601	      5.32082234	     -7.49999987	    -35.11715080	      4.89490710	      0.21532877	    -19.64686228	    -26.31343778	     -6.08367365	     36.58901011	     64.64847925	    -24.05139149	    -21.97399869	     15.12921568	     35.53412589	     51.85039672
      3.00416670	      1.74325487	     -0.97039768	     -0.51404091	     -0.10461085	      0.94637879	     -0.05436061	     25.19008456	     -6.34710917	     -9.73148423	     12.61644313	      0.22019847	    -22.97652284	      5.07825834	     -7.49999987	     25.59530322	     -7.50581012	     -6.52363808	     13.65121074	      0.23825857	    -22.86968307	      4.76674722	     -7.49999987	    -35.89382757	      4.99350583	      0.55660795	    -20.39821011	    -25.81878530	     -6.73533780	     36.10891560	     64.28518906	    -24.81798941	    -21.59807569	     14.50641798	     36.01798448	     52.20308075
      3.00833330	      2.05010234	     -0.86204053	     -0.45067716	     -0.09968979	      0.93988696	     -0.05091391	     25.42830117	     -6.36768546	     -9.65918709	     13.79991119	      0.24085389	    -22.64210652	      4.94673509	     -7.49999987	     25.84140604	     -7.62115702	     -6.30985356	     14.84366809	      0.25907088	    -22.46752319	      4.43806739	     -7.49999987	    -36.13896662	      4.84101121	      0.32978816	    -21.28161429	    -25.32371853	     -6.74671288	     35.86038405	     64.19894406	    -25.68486456	    -21.79157076	     14.37682514	     36.09881028	     52.27862694
      3.01250000	      2.19768828	     -0.65815614	     -0.34230406	     -0.09281322	      0.93093301	     -0.05211158	     25.96204075	     -6.62088662	     -9.87006699	     15.29691535	      0.26698154	    -21.63584089	      4.91049055	     -7.49999987	     26.32535814	     -7.52419910	     -5.68209528	     16.41660783	      0.28652386	    -21.64633827	      3.56300257	     -7.49999987	    -36.32216798	      4.34012923	     -0.03166231	    -21.85571771	    -24.82121138	     -7.63048173	     33.82317311	     63.94139134	    -26.48503551	    -22.00788274	     12.60559549	     36.40586015	     51.98642455
      3.01666670	      2.44300613	     -0.46644751	     -0.47849462	     -0.08978216	      0.91963683	     -0.05411276	     26.67745248	     -6.89590507	     -9.70935993	     17.21442054	      0.30044832	    -19.88196708	      4.17295618	     -7.49999987	     26.81848275	     -7.45186373	     -5.07697565	     18.48273244	      0.32258454	    -19.74257373	      2.86472355	     -7.49999987	    -36.77330145	      3.92807077	     -0.28111417	    -22.99920289	    -25.13646311	     -7.77237949	     34.44751385	     63.63755129	    -27.17574670	    -22.51084820	     11.99832148	     37.39854571	     52.27550012
      3.02083330	      2.72602453	     -0.35584850	     -0.65329029	     -0.08351882	      0.91231249	     -0.05124064	     27.34556666	     -7.02092057	     -9.63512897	     19.64290072	      0.34283329	    -17.21921586	      2.71003425	     -7.49999987	     27.17324977	     -7.53570620	     -4.60882181	     20.65393191	      0.36047912	    -17.12583937	      2.25086599	     -7.49999987	    -37.18776312	      3.54784664	     -0.68779424	    -23.59051282	    -25.39246849	     -7.85254469	     34.64581576	     63.29838004	    -27.67746585	    -23.15937044	     11.60387698	     37.96619380	     52.60553901
      3.02500000	      2.39962555	     -0.23191246	     -0.91567944	     -0.08122447	      0.90388729	     -0.05395668	     29.09091205	     -7.34007228	     -9.20515565	     22.85094774	      0.39882428	    -14.19709623	      0.99577213	     -7.49999987	     28.42075020	     -7.49850979	     -4.44615786	     23.14767238	      0.40400310	    -14.21192536	      0.98390257	     -7.49999987	    -36.93573932	      3.27930360	     -1.43411415	    -22.55510488	    -26.17400361	     -6.75765775	     32.80724971	     63.28728880	    -27.69787887	    -23.22582742	     11.78441917	     37.17873556	     52.18992728
      3.02916670	      2.67237655	     -0.24110017	     -1.07820773	     -0.07412286	      0.89553725	     -0.05851862	     30.06102632	     -7.79099511	     -8.58205420	     26.22360254	      0.45768821	    -10.52113095	     -0.66721262	     -7.49999987	     29.02383402	     -7.28955412	     -4.26472944	     25.64633461	      0.44761298	    -10.99062660	     -0.69852341	     -7.49999987	    -37.61350116	      3.33893577	     -1.68537404	    -22.80082019	    -26.95633962	     -6.83944875	     33.38921696	     63.00261031	    -27.66067754	    -23.45024762	     11.78481465	     37.82779468	     52.48072404
      3.03333330	      2.88275042	     -0.14218903	     -1.17523081	     -0.06940613	      0.88757562	     -0.05856255	     31.26735594	     -8.33384523	     -7.75763176	     29.77572961	      0.51968452	     -7.00564671	     -1.59869261	     -7.49999987	     30.04153277	     -7.05453242	     -4.37677828	     28.57670119	      0.49875753	     -8.28826340	     -2.43390182	     -7.49999987	    -38.25407636	      3.32126377	     -1.89617724	    -22.26563166	    -27.43826021	     -6.93873777	     32.16386706	     62.69570571	    -27.02568173	    -23.51137991	     12.03905917	     36.70397076	     52.48967423
      3.03750000	      2.63080467	     -0.03882008	     -1.06502010	     -0.06326795	      0.87593383	     -0.05853143	     33.17210680	     -8.85585907	     -7.05560123	     33.25087533	      0.58033725	     -3.54938027	     -1.87356113	     -7.49999987	     31.94465055	     -6.72878773	     -4.12320074	     32.14572146	      0.56104868	     -5.30282720	     -4.09869454	     -7.49999987	    -38.05747424	      3.42551518	     -2.28056911	    -21.79144624	    -27.79545144	     -6.91846502	     30.92745990	     62.35364356	    -26.40612192	    -23.80442081	     12.83536542	     35.35460894	     52.35884108
      3.04166670	      2.48121212	      0.03404135	     -1.00396607	     -0.05799864	      0.86075604	     -0.05735401	     35.20410898	     -9.16547804	     -6.52707770	     36.97432529	      0.64532371	     -0.47237666	     -2.61332979	     -7.49999987	     34.02006445	     -6.59370126	     -3.84550909	     36.28289780	      0.63325603	     -2.11571340	     -5.51940360	     -7.49999987	    -38.23698255	      3.50467754	     -2.44815871	    -22.13319268	    -28.17149784	     -7.07336876	     30.77429605	     61.33133091	    -25.97142958	    -24.74662471	     15.57729847	     34.87654571	     47.67088028
